<mxfile host="app.diagrams.net" agent="Mozilla/5.0 (Windows NT 10.0; Win64; x64) AppleWebKit/537.36 (KHTML, like Gecko) Chrome/131.0.0.0 Safari/537.36" version="25.0.3">
  <diagram name="หน้า-1" id="mHOrEWQ7yeq21xtKidev">
    <mxGraphModel dx="1034" dy="446" grid="1" gridSize="10" guides="1" tooltips="1" connect="1" arrows="1" fold="1" page="1" pageScale="1" pageWidth="827" pageHeight="1169" math="0" shadow="0">
      <root>
        <mxCell id="0" />
        <mxCell id="1" parent="0" />
        <mxCell id="DEouHyeZYh4bQGsdXv8S-3" value="" style="edgeStyle=orthogonalEdgeStyle;rounded=0;orthogonalLoop=1;jettySize=auto;html=1;" edge="1" parent="1" source="DEouHyeZYh4bQGsdXv8S-1" target="DEouHyeZYh4bQGsdXv8S-2">
          <mxGeometry relative="1" as="geometry" />
        </mxCell>
        <mxCell id="DEouHyeZYh4bQGsdXv8S-1" value="start" style="strokeWidth=2;html=1;shape=mxgraph.flowchart.terminator;whiteSpace=wrap;" vertex="1" parent="1">
          <mxGeometry x="350" y="50" width="100" height="60" as="geometry" />
        </mxCell>
        <mxCell id="DEouHyeZYh4bQGsdXv8S-7" value="" style="edgeStyle=orthogonalEdgeStyle;rounded=0;orthogonalLoop=1;jettySize=auto;html=1;" edge="1" parent="1" source="DEouHyeZYh4bQGsdXv8S-2" target="DEouHyeZYh4bQGsdXv8S-6">
          <mxGeometry relative="1" as="geometry" />
        </mxCell>
        <mxCell id="DEouHyeZYh4bQGsdXv8S-2" value="int a = 10 ;&lt;div&gt;int b = 20 ;&lt;/div&gt;&lt;div&gt;int c = 30 ;&lt;/div&gt;&lt;div&gt;int d = 40 ;&lt;/div&gt;" style="whiteSpace=wrap;html=1;strokeWidth=2;" vertex="1" parent="1">
          <mxGeometry x="340" y="190" width="120" height="60" as="geometry" />
        </mxCell>
        <mxCell id="DEouHyeZYh4bQGsdXv8S-9" value="" style="edgeStyle=orthogonalEdgeStyle;rounded=0;orthogonalLoop=1;jettySize=auto;html=1;" edge="1" parent="1" source="DEouHyeZYh4bQGsdXv8S-34" target="DEouHyeZYh4bQGsdXv8S-8">
          <mxGeometry relative="1" as="geometry" />
        </mxCell>
        <mxCell id="DEouHyeZYh4bQGsdXv8S-6" value="แสดงคำว่า This is 10 + 20 = 30" style="whiteSpace=wrap;html=1;strokeWidth=2;" vertex="1" parent="1">
          <mxGeometry x="190" y="330" width="420" height="60" as="geometry" />
        </mxCell>
        <mxCell id="DEouHyeZYh4bQGsdXv8S-11" value="" style="edgeStyle=orthogonalEdgeStyle;rounded=0;orthogonalLoop=1;jettySize=auto;html=1;" edge="1" parent="1" source="DEouHyeZYh4bQGsdXv8S-8" target="DEouHyeZYh4bQGsdXv8S-10">
          <mxGeometry relative="1" as="geometry" />
        </mxCell>
        <mxCell id="DEouHyeZYh4bQGsdXv8S-8" value="สร้างลูป&lt;br&gt;&lt;span class=&quot;hljs-keyword&quot;&gt;for&lt;/span&gt;( &lt;span class=&quot;hljs-type&quot;&gt;int&lt;/span&gt; i = &lt;span class=&quot;hljs-number&quot;&gt;0&lt;/span&gt; ; i &amp;lt; d - c ; i++ ) {&lt;div&gt;&lt;br/&gt;&lt;/div&gt;" style="whiteSpace=wrap;html=1;strokeWidth=2;" vertex="1" parent="1">
          <mxGeometry x="265" y="470" width="270" height="60" as="geometry" />
        </mxCell>
        <mxCell id="DEouHyeZYh4bQGsdXv8S-13" value="" style="edgeStyle=orthogonalEdgeStyle;rounded=0;orthogonalLoop=1;jettySize=auto;html=1;" edge="1" parent="1" source="DEouHyeZYh4bQGsdXv8S-10" target="DEouHyeZYh4bQGsdXv8S-12">
          <mxGeometry relative="1" as="geometry" />
        </mxCell>
        <mxCell id="DEouHyeZYh4bQGsdXv8S-23" value="" style="edgeStyle=orthogonalEdgeStyle;rounded=0;orthogonalLoop=1;jettySize=auto;html=1;" edge="1" parent="1" source="DEouHyeZYh4bQGsdXv8S-10" target="DEouHyeZYh4bQGsdXv8S-22">
          <mxGeometry relative="1" as="geometry" />
        </mxCell>
        <mxCell id="DEouHyeZYh4bQGsdXv8S-10" value="i &amp;lt; c (i &amp;lt;30)?" style="rhombus;whiteSpace=wrap;html=1;strokeWidth=2;" vertex="1" parent="1">
          <mxGeometry x="360" y="600" width="80" height="80" as="geometry" />
        </mxCell>
        <mxCell id="DEouHyeZYh4bQGsdXv8S-21" value="" style="edgeStyle=orthogonalEdgeStyle;rounded=0;orthogonalLoop=1;jettySize=auto;html=1;" edge="1" parent="1" source="DEouHyeZYh4bQGsdXv8S-12" target="DEouHyeZYh4bQGsdXv8S-20">
          <mxGeometry relative="1" as="geometry" />
        </mxCell>
        <mxCell id="DEouHyeZYh4bQGsdXv8S-12" value="&#xa;&lt;span class=&quot;hljs-built_in&quot;&gt;printf&lt;/span&gt;( &lt;span class=&quot;hljs-string&quot;&gt;&quot; Here &quot;&lt;/span&gt; ) ;&#xa;&#xa;" style="whiteSpace=wrap;html=1;strokeWidth=2;" vertex="1" parent="1">
          <mxGeometry x="340" y="770" width="120" height="60" as="geometry" />
        </mxCell>
        <mxCell id="DEouHyeZYh4bQGsdXv8S-25" value="" style="edgeStyle=orthogonalEdgeStyle;rounded=0;orthogonalLoop=1;jettySize=auto;html=1;" edge="1" parent="1" source="DEouHyeZYh4bQGsdXv8S-20" target="DEouHyeZYh4bQGsdXv8S-24">
          <mxGeometry relative="1" as="geometry" />
        </mxCell>
        <mxCell id="DEouHyeZYh4bQGsdXv8S-27" value="" style="edgeStyle=orthogonalEdgeStyle;rounded=0;orthogonalLoop=1;jettySize=auto;html=1;" edge="1" parent="1" source="DEouHyeZYh4bQGsdXv8S-20" target="DEouHyeZYh4bQGsdXv8S-26">
          <mxGeometry relative="1" as="geometry" />
        </mxCell>
        <mxCell id="DEouHyeZYh4bQGsdXv8S-20" value="i = 8 ?" style="rhombus;whiteSpace=wrap;html=1;strokeWidth=2;" vertex="1" parent="1">
          <mxGeometry x="360" y="900" width="80" height="80" as="geometry" />
        </mxCell>
        <mxCell id="DEouHyeZYh4bQGsdXv8S-22" value="ออกลูป" style="whiteSpace=wrap;html=1;strokeWidth=2;" vertex="1" parent="1">
          <mxGeometry x="500" y="610" width="120" height="60" as="geometry" />
        </mxCell>
        <mxCell id="DEouHyeZYh4bQGsdXv8S-38" value="" style="edgeStyle=orthogonalEdgeStyle;rounded=0;orthogonalLoop=1;jettySize=auto;html=1;" edge="1" parent="1" source="DEouHyeZYh4bQGsdXv8S-24" target="DEouHyeZYh4bQGsdXv8S-37">
          <mxGeometry relative="1" as="geometry" />
        </mxCell>
        <mxCell id="DEouHyeZYh4bQGsdXv8S-24" value="This is 8" style="whiteSpace=wrap;html=1;strokeWidth=2;" vertex="1" parent="1">
          <mxGeometry x="340" y="1070" width="120" height="60" as="geometry" />
        </mxCell>
        <mxCell id="DEouHyeZYh4bQGsdXv8S-33" value="" style="edgeStyle=orthogonalEdgeStyle;rounded=0;orthogonalLoop=1;jettySize=auto;html=1;" edge="1" parent="1" source="DEouHyeZYh4bQGsdXv8S-26" target="DEouHyeZYh4bQGsdXv8S-32">
          <mxGeometry relative="1" as="geometry" />
        </mxCell>
        <mxCell id="DEouHyeZYh4bQGsdXv8S-26" value="Ok" style="whiteSpace=wrap;html=1;strokeWidth=2;" vertex="1" parent="1">
          <mxGeometry x="500" y="910" width="120" height="60" as="geometry" />
        </mxCell>
        <mxCell id="DEouHyeZYh4bQGsdXv8S-35" value="" style="edgeStyle=orthogonalEdgeStyle;rounded=0;orthogonalLoop=1;jettySize=auto;html=1;" edge="1" parent="1" source="DEouHyeZYh4bQGsdXv8S-32" target="DEouHyeZYh4bQGsdXv8S-34">
          <mxGeometry relative="1" as="geometry" />
        </mxCell>
        <mxCell id="DEouHyeZYh4bQGsdXv8S-32" value="" style="shape=waypoint;sketch=0;size=6;pointerEvents=1;points=[];fillColor=default;resizable=0;rotatable=0;perimeter=centerPerimeter;snapToPoint=1;strokeWidth=2;" vertex="1" parent="1">
          <mxGeometry x="680" y="430" width="20" height="20" as="geometry" />
        </mxCell>
        <mxCell id="DEouHyeZYh4bQGsdXv8S-36" value="" style="edgeStyle=orthogonalEdgeStyle;rounded=0;orthogonalLoop=1;jettySize=auto;html=1;" edge="1" parent="1" source="DEouHyeZYh4bQGsdXv8S-6" target="DEouHyeZYh4bQGsdXv8S-34">
          <mxGeometry relative="1" as="geometry">
            <mxPoint x="400" y="390" as="sourcePoint" />
            <mxPoint x="400" y="470" as="targetPoint" />
          </mxGeometry>
        </mxCell>
        <mxCell id="DEouHyeZYh4bQGsdXv8S-34" value="" style="shape=waypoint;sketch=0;size=6;pointerEvents=1;points=[];fillColor=default;resizable=0;rotatable=0;perimeter=centerPerimeter;snapToPoint=1;strokeWidth=2;" vertex="1" parent="1">
          <mxGeometry x="390" y="430" width="20" height="20" as="geometry" />
        </mxCell>
        <mxCell id="DEouHyeZYh4bQGsdXv8S-37" value="end" style="strokeWidth=2;html=1;shape=mxgraph.flowchart.terminator;whiteSpace=wrap;" vertex="1" parent="1">
          <mxGeometry x="350" y="1220" width="100" height="60" as="geometry" />
        </mxCell>
      </root>
    </mxGraphModel>
  </diagram>
</mxfile>
